<svg width="567.125" height="92.09547074143977" viewBox="0 0 369.65517241379314 60.028330818525646" class="css-1j8o68f"><defs id="SvgjsDefs2608"></defs><g id="SvgjsG2609" featurekey="symbolFeature-0" transform="matrix(0.6125339865684509,0,0,0.6125339865684509,0.0051151789335564185,0)" fill="#11999e"><title xmlns="http://www.w3.org/2000/svg">pharmacy</title><path xmlns="http://www.w3.org/2000/svg" d="M66.9,77.7c-0.6-0.6-1.4-0.9-2.2-0.9c-1.7,0-3,1.3-3,3v8.4c0,2.4-1.2,3.6-3.7,3.6H40.4c-2.5,0-3.7-1.2-3.7-3.6V52.9l0,0  c0-0.2,0-0.5,0-0.7c-0.1-6.9-2.4-12.4-6.9-16.4c-4.6-4.1-10.5-6.3-16.6-6.1H8.9c-2.9,0-5.1,0.7-6.6,2.2c-1.6,1.6-2.4,3.8-2.3,6.1v22  c-0.1,2.3,0.7,4.5,2.3,6.1c1.5,1.5,3.7,2.2,6.6,2.2h10.2c1.7,0,3.1-1.4,3.1-3.1c0-1.7-1.4-3.1-3.1-3.1H9.7c-2.5,0-3.7-1.2-3.7-3.6  V39.5c0-2.4,1.2-3.6,3.7-3.6h3.6c4.3-0.1,8.5,1.4,11.9,4.1c3.4,2.8,5.4,7,5.4,12.8l0,0v36.9c-0.1,2.3,0.7,4.5,2.3,6.1  c1.5,1.5,3.7,2.2,6.6,2.2h19.4c2.9,0,5.1-0.7,6.6-2.2c1.6-1.6,2.4-3.8,2.3-6.1v-10C67.8,79.1,67.5,78.3,66.9,77.7z"></path><path xmlns="http://www.w3.org/2000/svg" d="M96.1,32c-1.5-1.5-3.7-2.2-6.6-2.2H79c-1.7,0-3.1,1.4-3.1,3.1c0,1.7,1.4,3.1,3.1,3.1h9.8c2.5,0,3.7,1.2,3.7,3.6v19.1  c0,2.4-1.2,3.6-3.7,3.6h-3l0,0H85h-0.1c-4.3,0.1-8.5-1.4-11.9-4.1c-3.4-2.8-5.4-7-5.4-12.8l0,0V8.3c0.1-2.3-0.7-4.5-2.3-6.1  C63.7,0.7,61.5,0,58.6,0H39.6c-2.9,0-5.1,0.7-6.6,2.2c-1.6,1.6-2.4,3.8-2.3,6.1v10c0,0.8,0.3,1.6,0.9,2.1c0.6,0.6,1.4,0.9,2.2,0.9  c1.7,0,3-1.3,3-3V9.9c0-2.4,1.2-3.6,3.7-3.6h17.2c2.5,0,3.7,1.2,3.7,3.6v35.3l0,0c0,0.2,0,0.5,0,0.7c0.2,6.9,2.4,12.3,6.9,16.3  c4.6,4.1,10.5,6.3,16.7,6.1h4.6c2.9,0,5.1-0.7,6.6-2.2c1.6-1.6,2.4-3.8,2.3-6.1v-22C98.6,35.8,97.7,33.6,96.1,32z"></path></g><g id="SvgjsG2610" featurekey="nameFeature-0" transform="matrix(1.1711757183074951,0,0,1.1711757183074951,76.34593157514448,-5.117166843075884)" fill="#40514e"><path d="M5.84 40 l-2.72 0 l0 -28.8 l4.16 0 l9.44 25.4 l0.08 0 l9.28 -25.4 l4.12 0 l0 28.8 l-2.72 0 l0 -25.68 l-0.08 0 l-9.44 25.68 l-2.56 0 l-9.48 -25.68 l-0.08 0 l0 25.68 z M37.68 28.2 l13.52 0 c0 -4.04 -2.24 -7.32 -6.56 -7.32 c-4.24 0 -6.48 3.4 -6.96 7.32 z M53.760000000000005 30.2 l-16.08 0 c-0.04 4.48 2.36 8.2 6.96 8.2 c3.12 0 5.56 -1.72 6.28 -4.76 l2.68 0 c-1.2 3.92 -3.68 6.92 -8.96 6.92 c-6.64 0 -9.52 -4.72 -9.52 -10.84 c0 -6.04 3.6 -11 9.52 -11 c5.68 0 9.16 4.04 9.12 11.48 z M74.44 29.560000000000002 c0 -4.68 -2.64 -8.68 -7 -8.68 c-4.96 0 -7.28 4.2 -7.08 9.4 c0.04 5.2 3.04 8.12 7.08 8.12 c4.52 0 7 -3.84 7 -8.84 z M74.44 22.6 l0 -11.4 l2.4 0 l0 28.8 l-2.4 0 l0 -3.64 l-0.08 0 c-1.4 2.72 -4.56 4.2 -7.2 4.2 c-6.68 0 -9.36 -4.76 -9.36 -10.88 c0 -5.8 2.92 -10.96 9.24 -10.96 c2.92 0 5.88 1.36 7.4 3.88 z M81.6 28.36 l10.12 0 l0 2.48 l-10.12 0 l0 -2.48 z M106.39999999999999 40 l-9.84 0 l0 -28.8 l9.84 0 c3.2 0 6.2 0.2 8.88 2.16 c3.8 2.76 4.8 8.36 4.8 12.2 c0 3.8 -0.84 8.04 -3.48 10.92 c-2.64 2.96 -6.4 3.52 -10.2 3.52 z M99.27999999999999 13.52 l0 24.16 l6.52 0 c2.44 0 4.56 -0.16 6.76 -1.32 c3.84 -1.96 4.8 -6.88 4.8 -10.8 c0 -4.2 -0.92 -8.8 -4.96 -10.96 c-1.72 -0.92 -4.2 -1.08 -6.6 -1.08 l-6.52 0 z M127.83999999999999 40 l-2.4 0 l0 -20.72 l2.4 0 l0 20.72 z M127.96 14.760000000000002 l-2.64 0 l0 -3.56 l2.64 0 l0 3.56 z M149.95999999999998 29.72 c0 -5 -2.48 -8.84 -7 -8.84 c-4.04 0 -7.04 2.92 -7.08 8.12 c-0.2 5.2 2.12 9.4 7.08 9.4 c4.36 0 7 -4 7 -8.68 z M149.95999999999998 22.92 l0 -3.64 l2.4 0 l0 18.72 c0 5.56 -1.84 10.48 -9.72 10.48 c-6.08 0 -8.6 -3.48 -8.76 -5.96 l2.56 0 c0.72 3.12 3.36 3.8 6.2 3.8 c6.56 0 7.44 -4.88 7.32 -9.64 c-1.52 2.52 -4.48 3.88 -7.4 3.88 c-6.32 0 -9.24 -5.16 -9.24 -10.96 c0 -6.12 2.68 -10.88 9.36 -10.88 c2.64 0 5.8 1.48 7.2 4.2 l0.08 0 z M161.15999999999997 40 l-2.4 0 l0 -20.72 l2.4 0 l0 20.72 z M161.27999999999997 14.760000000000002 l-2.64 0 l0 -3.56 l2.64 0 l0 3.56 z M165.03999999999996 13.52 l0 -2.32 l20.96 0 l0 2.32 l-9.12 0 l0 26.48 l-2.72 0 l0 -26.48 l-9.12 0 z M191 28.2 l13.52 0 c0 -4.04 -2.24 -7.32 -6.56 -7.32 c-4.24 0 -6.48 3.4 -6.96 7.32 z M207.07999999999998 30.2 l-16.08 0 c-0.04 4.48 2.36 8.2 6.96 8.2 c3.12 0 5.56 -1.72 6.28 -4.76 l2.68 0 c-1.2 3.92 -3.68 6.92 -8.96 6.92 c-6.64 0 -9.52 -4.72 -9.52 -10.84 c0 -6.04 3.6 -11 9.52 -11 c5.68 0 9.16 4.04 9.12 11.48 z M228.88 25.8 l-2.44 0 c-0.84 -3.08 -2.96 -4.92 -6.16 -4.92 c-4.92 0 -6.96 4.48 -6.96 8.8 c0 4.36 2 8.72 6.96 8.72 c3.56 0 5.8 -2.12 6.36 -5.56 l2.56 0 c-0.84 4.6 -3.72 7.72 -8.92 7.72 c-6.6 0 -9.52 -4.76 -9.52 -10.88 c0 -5.76 3.32 -10.96 9.52 -10.96 c4.76 0 7.88 2.28 8.6 7.08 z M236.4 40 l-2.4 0 l0 -28.8 l2.4 0 l0 10.96 c1.92 -2.04 3.8 -3.44 6.68 -3.44 c2.52 0 4.84 0.8 6.32 2.96 c1 1.48 1.04 3.04 1.04 4.76 l0 13.56 l-2.4 0 l0 -13.52 c0 -3.72 -1.52 -5.6 -5.36 -5.6 c-2.96 0 -5 1.92 -5.76 4.04 c-0.48 1.32 -0.52 2.48 -0.52 3.92 l0 11.16 z"></path></g></svg>
